<svg width="438" height="340" viewBox="0 0 438 340" fill="none" xmlns="http://www.w3.org/2000/svg">
<g clip-path="url(#clip0)">
<path d="M61.6813 97.9392L60.0755 71.3293C49.5835 64.3214 38.7046 57.9108 27.4906 52.1281L24.4332 63.771L23.611 50.1467C9.67364 43.1339 0 39.3723 0 39.3723C0 39.3723 3.74382 93.45 24.6581 138.228L56.6511 150.34L30.2317 149.155C32.9882 154.135 36.0552 158.937 39.4146 163.533C73.439 209.752 116.116 236.107 134.737 222.4C153.358 208.692 140.871 160.112 106.846 113.893C96.2982 99.5647 82.0212 86.9603 67.3415 76.3853L61.6813 97.9392Z" fill="#E6E6E6"/>
<path d="M128.139 82.0188L140.519 58.4095C135.16 46.9871 129.161 35.8761 122.551 25.1293L113.915 33.5158L120.254 21.4278C111.948 8.22033 105.611 0 105.611 0C105.611 0 80.863 48.2281 75.6207 97.3705L96.7472 124.276L74.7439 109.605C74.5291 115.294 74.6724 120.99 75.1728 126.66C80.4084 183.813 103.319 228.434 126.344 226.325C149.37 224.215 163.791 176.174 158.555 119.022C156.932 101.304 151.226 83.134 144.126 66.4934L128.139 82.0188Z" fill="#E6E6E6"/>
<path d="M197.399 320.917C206.416 320.917 213.725 318.828 213.725 316.252C213.725 313.677 206.416 311.588 197.399 311.588C188.383 311.588 181.074 313.677 181.074 316.252C181.074 318.828 188.383 320.917 197.399 320.917Z" fill="#E6E6E6"/>
<path d="M409.169 300.861C418.186 300.861 425.496 298.772 425.496 296.196C425.496 293.62 418.186 291.532 409.169 291.532C400.152 291.532 392.842 293.62 392.842 296.196C392.842 298.772 400.152 300.861 409.169 300.861Z" fill="#E6E6E6"/>
<path d="M342.233 287.333C349.06 287.333 354.595 285.752 354.595 283.801C354.595 281.851 349.06 280.27 342.233 280.27C335.406 280.27 329.872 281.851 329.872 283.801C329.872 285.752 335.406 287.333 342.233 287.333Z" fill="#E6E6E6"/>
<path d="M74.4894 284.002C78.9977 284.002 82.6523 282.868 82.6523 281.47C82.6523 280.071 78.9977 278.938 74.4894 278.938C69.9811 278.938 66.3265 280.071 66.3265 281.47C66.3265 282.868 69.9811 284.002 74.4894 284.002Z" fill="#E6E6E6"/>
<path d="M42.3043 312.454C46.8126 312.454 50.4673 311.32 50.4673 309.922C50.4673 308.524 46.8126 307.391 42.3043 307.391C37.796 307.391 34.1413 308.524 34.1413 309.922C34.1413 311.32 37.796 312.454 42.3043 312.454Z" fill="#E6E6E6"/>
<path d="M42.3043 267.675C46.8126 267.675 50.4673 266.542 50.4673 265.143C50.4673 263.745 46.8126 262.611 42.3043 262.611C37.796 262.611 34.1413 263.745 34.1413 265.143C34.1413 266.542 37.796 267.675 42.3043 267.675Z" fill="#E6E6E6"/>
<path d="M391.849 273.319L312.758 270.52L271.048 274.499L199.788 281.295L172.972 283.851L110.869 304.562C110.619 304.645 110.351 304.656 110.096 304.593C109.841 304.53 109.609 304.396 109.427 304.206C109.245 304.017 109.12 303.78 109.067 303.522C109.015 303.265 109.036 302.998 109.129 302.752L109.133 302.747L119.904 274.261L118.77 273.426L89.1319 251.647L88.9733 251.531L50.5425 245.672C50.0014 245.589 49.4904 245.37 49.0577 245.035C48.625 244.699 48.2847 244.259 48.0691 243.756C47.8535 243.253 47.7696 242.703 47.8253 242.159C47.881 241.614 48.0744 241.093 48.3875 240.644L106.918 156.655L137.675 112.528L141.011 107.738L268.958 105.97L393.878 269.391C394.16 269.759 394.331 270.2 394.371 270.661C394.412 271.123 394.32 271.586 394.108 271.998C393.895 272.409 393.57 272.752 393.17 272.986C392.77 273.22 392.312 273.335 391.849 273.319Z" fill="#964B00"/>
<path opacity="0.2" d="M170.983 114.554L118.77 273.426L89.1342 251.647L106.919 156.656L137.588 112.423L137.675 112.526L170.983 114.554Z" fill="black"/>
<path d="M124.376 175.415C118.451 189.657 116.354 201.553 109.326 199.405C99.7054 196.464 109.807 186.062 115.732 171.82C121.656 157.577 125.842 146.652 130.781 147.83C139.988 150.024 130.3 161.173 124.376 175.415Z" fill="#3F3D56"/>
<path d="M137.799 146.907C137.798 145.964 137.61 145.031 137.248 144.161C136.886 143.291 136.356 142.5 135.689 141.835C135.021 141.17 134.229 140.642 133.358 140.283C132.486 139.924 131.552 139.739 130.61 139.741C130.448 139.741 130.288 139.749 130.129 139.76L123.355 138.924C122.578 138.647 121.759 138.506 120.934 138.508C120.706 138.509 120.481 138.521 120.258 138.542L119.997 138.51L119.99 138.573C118.401 138.787 116.929 139.526 115.808 140.674C114.688 141.822 113.985 143.312 113.81 144.906C113.636 146.501 114 148.107 114.845 149.47C115.691 150.833 116.968 151.874 118.474 152.426L118.46 152.555L119.126 152.63C119.724 152.786 120.339 152.865 120.957 152.863C121.025 152.863 121.093 152.86 121.161 152.858L128.085 153.634C128.899 153.941 129.763 154.098 130.633 154.096C130.957 154.095 131.282 154.072 131.603 154.028L132.193 154.094L132.197 153.921C133.789 153.562 135.211 152.672 136.229 151.397C137.248 150.123 137.801 148.539 137.799 146.907Z" fill="#964B00"/>
<path opacity="0.2" d="M137.799 146.907C137.798 145.964 137.61 145.031 137.248 144.161C136.886 143.291 136.356 142.5 135.689 141.835C135.021 141.17 134.229 140.642 133.358 140.283C132.486 139.924 131.552 139.739 130.61 139.741C130.448 139.741 130.288 139.749 130.129 139.76L123.355 138.924C122.578 138.647 121.759 138.506 120.934 138.508C120.706 138.509 120.481 138.521 120.258 138.542L119.997 138.51L119.99 138.573C118.401 138.787 116.929 139.526 115.808 140.674C114.688 141.822 113.985 143.312 113.81 144.906C113.636 146.501 114 148.107 114.845 149.47C115.691 150.833 116.968 151.874 118.474 152.426L118.46 152.555L119.126 152.63C119.724 152.786 120.339 152.865 120.957 152.863C121.025 152.863 121.093 152.86 121.161 152.858L128.085 153.634C128.899 153.941 129.763 154.098 130.633 154.096C130.957 154.095 131.282 154.072 131.603 154.028L132.193 154.094L132.197 153.921C133.789 153.562 135.211 152.672 136.229 151.397C137.248 150.123 137.801 148.539 137.799 146.907Z" fill="white"/>
<path d="M41.9404 244.957L41.1113 244.522C62.3463 204.049 122.407 117.573 123.011 116.704L123.78 117.238C123.176 118.107 63.1483 204.535 41.9404 244.957Z" fill="#3F3D56"/>
<path d="M106.986 305.612L106.083 305.366C106.521 303.757 150.016 144.212 165.118 117.298L165.935 117.756C150.889 144.571 107.424 304.004 106.986 305.612Z" fill="#3F3D56"/>
<path d="M397.561 274.68C374.373 236.481 286.803 118.178 285.921 116.988L286.673 116.43C287.556 117.621 375.151 235.959 398.362 274.194L397.561 274.68Z" fill="#3F3D56"/>
<path d="M105.301 309.859C107.111 309.856 108.575 307.967 108.571 305.64C108.567 303.314 107.097 301.43 105.287 301.433C103.478 301.436 102.014 303.324 102.017 305.651C102.021 307.978 103.491 309.862 105.301 309.859Z" fill="#3F3D56"/>
<path d="M42.1533 246.767C43.963 246.764 45.427 244.876 45.4233 242.549C45.4196 240.222 43.9495 238.338 42.1398 238.341C40.33 238.344 38.866 240.233 38.8698 242.559C38.8735 244.886 40.3436 246.77 42.1533 246.767Z" fill="#3F3D56"/>
<path d="M398.429 276.783C400.238 276.78 401.702 274.891 401.698 272.564C401.695 270.237 400.225 268.354 398.415 268.356C396.606 268.359 395.142 270.248 395.146 272.575C395.15 274.902 396.62 276.786 398.429 276.783Z" fill="#3F3D56"/>
<path d="M119.372 121.351L295.981 123.243C295.858 108.819 290.04 95.0281 279.795 84.8744C269.549 74.7207 255.706 69.0272 241.282 69.0344L173.881 69.1429C145.689 69.1882 121.818 91.2349 119.536 119.334L119.372 121.351Z" fill="#3F3D56"/>
<path opacity="0.2" d="M274.547 179.729H209.999C209.213 179.729 208.435 179.884 207.71 180.187C206.984 180.489 206.326 180.933 205.774 181.492C205.221 182.051 204.786 182.714 204.492 183.443C204.198 184.172 204.051 184.952 204.061 185.737L204.117 190.458L204.691 240.993L204.7 241.968L204.719 243.577L204.738 245.149L204.845 254.623C204.862 256.164 205.479 257.639 206.563 258.735C207.648 259.83 209.115 260.462 210.657 260.495C210.815 260.495 210.979 260.491 211.142 260.481L226.47 259.549L248.645 258.196L256.472 257.72L258.216 257.613L270.414 256.871H270.419L274.906 256.596C276.416 256.502 277.833 255.837 278.869 254.736C279.905 253.634 280.483 252.18 280.485 250.667V185.667C280.483 184.093 279.857 182.584 278.744 181.471C277.631 180.357 276.121 179.731 274.547 179.729Z" fill="black"/>
<path d="M287.839 171.476C287.606 171.494 287.379 171.564 287.176 171.681C286.973 171.797 286.798 171.957 286.664 172.149L279.552 172.161V170.274C279.55 168.7 278.924 167.191 277.811 166.077C276.698 164.964 275.189 164.338 273.614 164.336H209.066C208.281 164.336 207.502 164.491 206.777 164.794C206.052 165.096 205.394 165.54 204.841 166.099C204.289 166.658 203.853 167.321 203.559 168.05C203.265 168.779 203.119 169.559 203.128 170.344L203.151 172.284L198.565 172.291C198.313 172.023 197.968 171.863 197.601 171.845C195.994 171.847 194.696 175.358 194.703 179.686C194.71 184.015 196.019 187.521 197.627 187.519C197.907 187.488 198.175 187.391 198.41 187.234C198.644 187.078 198.838 186.868 198.974 186.621L286.687 186.48C286.822 186.672 286.997 186.831 287.201 186.947C287.404 187.063 287.631 187.132 287.865 187.15C289.472 187.147 290.77 183.636 290.763 179.308C290.756 174.98 289.447 171.473 287.839 171.476Z" fill="#964B00"/>
<path opacity="0.2" d="M287.839 171.476C287.606 171.494 287.38 171.564 287.176 171.681C286.973 171.797 286.798 171.957 286.664 172.149L279.552 172.161V170.274C279.551 168.7 278.924 167.191 277.811 166.077C276.698 164.964 275.189 164.338 273.614 164.336H209.066C208.281 164.336 207.502 164.491 206.777 164.794C206.052 165.096 205.394 165.54 204.841 166.099C204.289 166.658 203.853 167.321 203.559 168.05C203.265 168.779 203.119 169.559 203.128 170.344L203.151 172.284L198.565 172.291C198.313 172.023 197.968 171.863 197.601 171.845C195.994 171.847 194.696 175.358 194.703 179.686C194.71 184.015 196.019 187.521 197.627 187.519C197.907 187.488 198.175 187.391 198.41 187.234C198.644 187.078 198.838 186.868 198.974 186.621L286.687 186.48C286.822 186.672 286.997 186.831 287.201 186.947C287.404 187.063 287.631 187.132 287.865 187.15C289.472 187.147 290.77 183.636 290.763 179.308C290.756 174.98 289.447 171.473 287.839 171.476Z" fill="white"/>
<path d="M280.614 270.568C280.187 270.967 279.673 271.263 279.112 271.431C278.552 271.599 277.96 271.635 277.383 271.537C276.806 271.438 276.26 271.207 275.787 270.863C275.314 270.518 274.927 270.069 274.657 269.55L271.148 262.812L272.544 259.787L280.067 264.601C280.554 264.913 280.963 265.332 281.264 265.826C281.564 266.319 281.747 266.875 281.8 267.451C281.853 268.026 281.774 268.606 281.568 269.146C281.362 269.687 281.036 270.173 280.614 270.568Z" fill="#FFB8B8"/>
<path d="M295.772 309.879C295.689 309.101 295.318 308.381 294.732 307.862C294.146 307.343 293.388 307.061 292.605 307.072C291.892 307.067 291.198 307.302 290.634 307.739C290.071 308.176 289.67 308.789 289.497 309.481L286.39 324.573C286.287 325.014 286.234 325.466 286.231 325.919C286.231 329.322 289.079 331.687 292.605 331.687C296.131 331.687 298.981 329.322 298.981 325.919C298.979 325.373 298.905 324.831 298.761 324.305L295.772 309.879Z" fill="#3F3D56"/>
<path d="M319.281 316.628C318.965 316.351 318.625 316.103 318.265 315.886L306.392 307.589C305.236 306.864 304.001 306.884 303.105 307.76C302.713 308.132 302.465 308.63 302.402 309.167C302.34 309.703 302.468 310.245 302.763 310.697L311.728 322.478C311.933 322.764 312.161 323.032 312.411 323.279C313.965 325.015 317.411 325.111 319.305 323.279C321.173 321.416 321.151 318.097 319.281 316.628Z" fill="#3F3D56"/>
<path d="M328.204 304.338H316.179C315.793 304.324 315.418 304.462 315.134 304.723C314.85 304.984 314.68 305.346 314.662 305.732C314.656 306.087 314.769 306.434 314.983 306.718C315.197 307.001 315.5 307.205 315.844 307.296L327.188 310.805C328.836 311.189 331.055 309.721 331.055 307.887C331.055 305.554 329.758 304.338 328.204 304.338Z" fill="#3F3D56"/>
<path d="M270.985 305.724C270.972 305.526 270.92 305.332 270.832 305.154C270.744 304.976 270.621 304.818 270.471 304.688C270.32 304.559 270.146 304.46 269.957 304.399C269.768 304.337 269.569 304.314 269.371 304.331H257.346C255.832 304.331 254.555 305.966 254.555 307.8C254.555 309.634 256.71 311.187 258.362 310.803L269.877 307.294C270.222 307.214 270.526 307.01 270.73 306.72C270.934 306.431 271.025 306.076 270.985 305.724Z" fill="#3F3D56"/>
<path d="M279.238 307.602L267.362 315.863C266.993 316.07 266.649 316.32 266.337 316.606C265.464 317.418 264.949 318.543 264.906 319.735C264.863 320.926 265.295 322.086 266.107 322.959C266.181 323.039 266.258 323.116 266.337 323.19C267.269 324.069 268.502 324.56 269.783 324.56C271.064 324.56 272.297 324.069 273.229 323.19C273.483 322.947 273.712 322.679 273.912 322.391L282.884 310.675C283.184 310.229 283.315 309.69 283.252 309.156C283.19 308.621 282.938 308.127 282.542 307.762C282.099 307.349 281.524 307.107 280.919 307.077C280.314 307.048 279.719 307.234 279.238 307.602Z" fill="#3F3D56"/>
<path d="M297.712 291.458C297.849 291.255 297.926 291.017 297.932 290.772C297.932 289.326 295.082 288.321 291.555 288.321C288.029 288.321 285.181 289.326 285.181 290.772C285.186 290.973 285.24 291.17 285.339 291.344L288.447 297.757C288.804 298.362 290.088 298.785 291.555 298.781C293.21 298.781 294.585 298.258 294.723 297.588L297.712 291.458Z" fill="#3F3D56"/>
<path d="M318.255 291.893C316.362 291.115 312.916 291.155 311.362 291.893C311.126 291.991 310.898 292.105 310.679 292.234L301.713 297.24C301.104 297.637 301.247 298.162 302.055 298.488C303.116 298.856 304.266 298.881 305.342 298.561L317.215 295.035C317.559 294.948 317.899 294.843 318.232 294.72C320.101 294.096 320.124 292.685 318.255 291.893Z" fill="#3F3D56"/>
<path d="M330.004 298.435C330.004 297.656 327.784 297.033 326.137 297.196L314.794 298.686C314.116 298.781 313.612 299.002 313.612 299.351C313.612 299.699 314.352 299.942 315.129 299.942H327.152C328.706 299.942 330.004 299.426 330.004 298.435Z" fill="#3F3D56"/>
<path d="M268.827 298.687L257.313 297.195C255.66 297.032 253.505 297.692 253.505 298.472C253.505 299.251 254.783 299.947 256.297 299.947H268.322C269.158 299.947 269.935 299.717 269.935 299.354C269.935 298.991 269.577 298.782 268.827 298.687Z" fill="#3F3D56"/>
<path d="M281.492 298.487C282.332 298.155 282.431 297.654 281.833 297.249L272.862 292.27C272.644 292.139 272.416 292.025 272.179 291.931C269.948 291.155 267.519 291.155 265.288 291.931C265.208 291.962 265.132 291.995 265.058 292.029C263.367 292.801 263.47 294.01 265.288 294.729C265.622 294.857 265.964 294.963 266.312 295.045L278.188 298.555C279.27 298.877 280.424 298.853 281.492 298.487Z" fill="#3F3D56"/>
<path d="M316.012 290.419C316.012 308.966 305.675 309.309 292.923 309.309C280.172 309.309 259.237 305.64 269.835 290.419C281.013 274.365 300.189 243.765 292.923 242.145C292.923 242.145 316.012 271.872 316.012 290.419Z" fill="#F9A825"/>
<path opacity="0.5" d="M301.055 301.832C301.055 309.174 296.963 309.31 291.916 309.31C286.868 309.31 278.581 307.857 282.776 301.832C287.201 295.477 294.792 283.365 291.916 282.723C291.916 282.723 301.055 294.49 301.055 301.832Z" fill="#FF6584"/>
<path d="M280.485 247.351V250.667C280.483 252.18 279.905 253.634 278.869 254.736C277.833 255.837 276.416 256.502 274.906 256.596L211.143 260.481C210.34 260.53 209.536 260.416 208.779 260.144C208.021 259.873 207.327 259.451 206.738 258.903C206.149 258.355 205.678 257.693 205.353 256.957C205.027 256.221 204.855 255.427 204.846 254.623L204.692 240.993L243.263 240.368L280.485 247.351Z" fill="#3F3D56"/>
<path d="M270.088 263.778L241.321 248.838C241.188 248.769 241.071 248.672 240.979 248.555C240.886 248.437 240.82 248.302 240.784 248.157L234.544 223.007C234.181 221.547 234.377 220.006 235.092 218.683C235.807 217.36 236.989 216.352 238.409 215.855L239.912 215.329C240.247 215.212 240.603 215.164 240.957 215.19C241.311 215.216 241.656 215.314 241.971 215.478C242.285 215.643 242.563 215.87 242.786 216.146C243.01 216.422 243.174 216.741 243.269 217.083L249.419 239.225C249.477 239.432 249.597 239.617 249.762 239.754L273.201 259.174C273.403 259.342 273.535 259.579 273.572 259.839C273.608 260.099 273.546 260.363 273.398 260.58L271.442 263.438C271.297 263.651 271.079 263.802 270.829 263.865C270.58 263.928 270.316 263.897 270.088 263.778Z" fill="#E6E6E6"/>
<path d="M251.137 224.651C237.185 217.306 222.58 213.618 206.926 215.809C211.645 207.812 215.149 200.419 214.915 194.884C214.814 193.105 215.151 191.329 215.896 189.711C216.642 188.092 217.772 186.682 219.189 185.602C221.47 183.911 224.233 182.999 227.072 183.001C229.607 181.87 232.478 181.756 235.095 182.682C236.205 183.1 237.215 183.748 238.058 184.582C238.902 185.417 239.559 186.421 239.988 187.527C240.523 188.824 241.675 189.96 243.347 190.96C244.895 191.856 246.156 193.174 246.983 194.759C248.084 196.95 248.16 199.156 246.717 201.383C252.119 207.058 252.135 215.587 251.137 224.651Z" fill="#2F2E41"/>
<path d="M231.358 206.269C236.756 206.269 241.131 201.894 241.131 196.496C241.131 191.099 236.756 186.724 231.358 186.724C225.961 186.724 221.585 191.099 221.585 196.496C221.585 201.894 225.961 206.269 231.358 206.269Z" fill="#FFB8B8"/>
<path d="M236.012 217.671L224.61 218.835C225.222 212.168 225.463 206.016 224.61 201.383H236.012C233.847 208.76 234.037 214.019 236.012 217.671Z" fill="#FFB8B8"/>
<path d="M242.12 217.419C242.11 218.44 242.088 219.451 242.054 220.451C241.816 227.606 240.916 234.048 238.463 238.791C237.964 239.773 237.369 240.703 236.685 241.567C236.681 241.575 236.674 241.583 236.667 241.59C236.62 241.656 236.568 241.718 236.513 241.777C236.011 242.4 235.454 242.976 234.848 243.498L230.178 248.395L229.964 248.619L228.602 249.529L221.586 254.203L204.738 245.149L204.72 243.577L204.701 241.968C208.447 236.66 210.784 229.756 212.267 221.897C212.673 219.746 213.018 217.522 213.312 215.236C213.512 213.655 213.69 212.041 213.843 210.404C213.867 209.901 214.038 209.416 214.333 209.009C214.333 209.008 214.333 209.008 214.334 209.007C214.334 209.007 214.334 209.006 214.335 209.006C214.335 209.005 214.336 209.005 214.336 209.005C214.337 209.004 214.337 209.004 214.338 209.004C215.056 208.09 216.484 208.109 218.209 208.015C220.63 207.885 223.014 206.63 225.155 207.815C225.208 207.839 225.259 207.867 225.309 207.899L231.592 214.877L234.479 211.766L234.614 211.621L240.562 214.168C241.17 214.431 241.663 214.904 241.949 215.502C242.235 216.099 242.296 216.78 242.12 217.419Z" fill="#E6E6E6"/>
<path d="M228.858 251.717C228.858 252.907 228.634 254.086 228.196 255.193L226.47 259.55L211.143 260.483C210.979 260.492 210.816 260.497 210.658 260.497C209.116 260.463 207.648 259.832 206.564 258.736C205.479 257.64 204.863 256.165 204.846 254.624L204.738 245.149L204.72 243.577L210.298 245.942L215.737 243.022C216.034 242.895 216.337 242.786 216.647 242.695C217.05 242.568 217.461 242.47 217.878 242.401H217.883C218.083 242.369 218.284 242.341 218.485 242.322C220.79 242.091 223.1 242.717 224.973 244.081C226.068 244.874 226.976 245.896 227.636 247.076C227.687 247.157 227.732 247.241 227.771 247.328C228.142 248.022 228.421 248.763 228.602 249.529C228.771 250.246 228.857 250.981 228.858 251.717Z" fill="#2F2E41"/>
<path opacity="0.2" d="M224.494 223.837L226.533 233.192L238.92 243.848L227.984 232.679L224.494 223.837Z" fill="black"/>
<path opacity="0.2" d="M213.093 228.258L216.815 243.382L227.752 247.338L217.514 242.219L213.093 228.258Z" fill="black"/>
<path d="M243.109 197.078C235.906 193.764 227.763 192.82 220.538 196.38L221.469 188.004L237.292 185.444L243.109 197.078Z" fill="#2F2E41"/>
<path d="M301.008 270.687L248.044 261.589L248.694 258.389L301.008 270.687Z" fill="#3F3D56"/>
<path d="M256.879 263.588C256.452 263.987 255.938 264.283 255.377 264.451C254.817 264.619 254.225 264.655 253.648 264.557C253.072 264.458 252.525 264.227 252.053 263.883C251.58 263.538 251.193 263.088 250.923 262.569L247.414 255.831L248.81 252.806L256.333 257.621C256.819 257.933 257.229 258.351 257.529 258.845C257.829 259.339 258.013 259.895 258.065 260.471C258.118 261.046 258.039 261.626 257.833 262.166C257.628 262.707 257.301 263.193 256.879 263.588Z" fill="#FFB8B8"/>
<path d="M246.353 256.797L217.586 241.857C217.453 241.788 217.337 241.691 217.244 241.574C217.152 241.456 217.085 241.321 217.049 241.176L210.809 216.026C210.447 214.567 210.642 213.025 211.357 211.702C212.072 210.379 213.255 209.371 214.674 208.874L216.177 208.348C216.512 208.231 216.868 208.183 217.222 208.209C217.576 208.235 217.921 208.333 218.236 208.497C218.551 208.662 218.828 208.889 219.052 209.165C219.275 209.441 219.439 209.76 219.534 210.102L225.685 232.244C225.743 232.451 225.862 232.636 226.028 232.773L249.466 252.193C249.668 252.361 249.801 252.598 249.837 252.858C249.874 253.118 249.812 253.382 249.663 253.599L247.708 256.457C247.562 256.67 247.344 256.821 247.095 256.884C246.845 256.947 246.581 256.916 246.353 256.797Z" fill="#E6E6E6"/>
<path d="M295.3 272.344C295.555 272.393 295.818 272.341 296.034 272.197C296.249 272.053 296.399 271.83 296.451 271.576L296.982 268.92C297.033 268.666 296.98 268.402 296.837 268.186C296.693 267.97 296.469 267.82 296.215 267.77L288.527 266.233C288.272 266.182 288.008 266.235 287.793 266.379C287.577 266.523 287.427 266.746 287.376 267L286.845 269.656C286.82 269.782 286.82 269.912 286.845 270.038C286.87 270.164 286.919 270.283 286.991 270.39C287.062 270.497 287.153 270.589 287.26 270.66C287.367 270.732 287.486 270.782 287.612 270.807L295.3 272.344Z" fill="#E6E6E6"/>
<path d="M197.494 231.113C196.209 231.174 194.951 230.735 193.983 229.889C193.014 229.043 192.411 227.855 192.3 226.574L191.557 218.028L197.924 215.713L201.775 224.057C202.116 224.797 202.271 225.61 202.225 226.424C202.179 227.237 201.934 228.027 201.511 228.724C201.088 229.421 200.501 230.003 199.8 230.419C199.1 230.836 198.308 231.074 197.494 231.113Z" fill="#FFB9B9"/>
<path d="M167.248 131.211C173.961 131.211 179.402 125.769 179.402 119.057C179.402 112.344 173.961 106.902 167.248 106.902C160.535 106.902 155.093 112.344 155.093 119.057C155.093 125.769 160.535 131.211 167.248 131.211Z" fill="#FFB9B9"/>
<path d="M170.722 146.259L149.886 141.049C154.401 134.273 157.282 127.945 156.831 122.528H170.143C169.312 131.312 169.312 139.387 170.722 146.259Z" fill="#FFB9B9"/>
<path d="M177.666 219.767H145.833C139.18 186.284 140.874 157.687 152.2 135.263C152.536 134.456 152.716 133.592 152.73 132.717C152.757 132.407 152.86 132.109 153.029 131.848C153.199 131.587 153.43 131.372 153.703 131.222C153.976 131.073 154.281 130.992 154.592 130.989C154.904 130.985 155.211 131.059 155.487 131.203C160.21 133.654 165.238 135.469 170.438 136.6C170.73 136.663 171.002 136.795 171.233 136.984C171.464 137.173 171.647 137.414 171.767 137.687C171.887 137.961 171.94 138.258 171.923 138.556C171.905 138.854 171.818 139.144 171.667 139.401C171.494 139.635 171.372 139.903 171.309 140.187C171.245 140.471 171.242 140.766 171.3 141.051C178.869 166.562 181.037 193.371 177.666 219.767Z" fill="#212121"/>
<path d="M174.194 317.002L164.934 318.159L159.146 235.97L139.467 315.844L129.628 316.423L139.467 213.976H179.404L174.194 317.002Z" fill="#E6E6E6"/>
<path d="M140.469 334.939L133.644 335.56C129.03 334.18 129.954 329.02 129.21 323.1L130.248 314.793L131.701 314.492C133.836 310.155 136.273 309.728 139.065 313.903L139.874 313.755L140.912 320.504L143.754 330.096C143.913 330.633 143.951 331.198 143.866 331.752C143.78 332.305 143.572 332.832 143.258 333.295C142.944 333.759 142.53 334.146 142.048 334.431C141.566 334.715 141.027 334.889 140.469 334.939Z" fill="#E6E6E6"/>
<path d="M175.197 334.939L168.372 335.56C163.759 334.18 164.682 329.02 163.938 323.1L164.976 314.793L166.429 314.492C168.564 310.155 171.001 309.728 173.793 313.903L174.602 313.755L175.64 320.504L178.483 330.096C178.642 330.633 178.68 331.198 178.594 331.752C178.508 332.305 178.3 332.832 177.986 333.295C177.672 333.759 177.259 334.146 176.776 334.431C176.294 334.715 175.755 334.889 175.197 334.939Z" fill="#E6E6E6"/>
<path d="M177.579 118.003L172.143 114.475C171.283 113.916 170.308 113.56 169.291 113.433C168.274 113.305 167.241 113.41 166.27 113.739C165.299 114.068 164.415 114.612 163.684 115.332C162.954 116.051 162.396 116.926 162.052 117.892L158.857 126.869L156.541 125.712C152.449 118.636 150.512 111.916 157.12 106.612C158.9 102.31 165.164 100.736 169.81 101.036C175.531 101.405 181.429 106.088 181.429 111.821L180.669 115.975C180.734 116.362 180.685 116.759 180.528 117.118C180.371 117.477 180.113 117.783 179.786 117.998C179.458 118.213 179.075 118.328 178.683 118.328C178.291 118.329 177.907 118.216 177.579 118.003Z" fill="#2F2E41"/>
<path d="M162.039 244.652L124.418 237.707C134.957 205.333 139.401 173.735 133.161 143.5C132.862 142.066 133.135 140.572 133.922 139.336C134.71 138.1 135.949 137.221 137.376 136.887L149.306 134.103L155.673 129.473L162.039 138.155V244.652Z" fill="#E6E6E6"/>
<path d="M183.455 242.339L171.879 245.233C174.746 213.736 172.311 178.741 166.67 141.63L169.564 135.263L172.168 137.289L181.517 147.477C182.291 147.992 182.923 148.692 183.359 149.512C183.795 150.333 184.021 151.249 184.015 152.178L183.455 242.339Z" fill="#E6E6E6"/>
<path d="M199.082 216.293L189.821 220.923L173.036 180.408L181.718 156.677L199.082 216.293Z" fill="#E6E6E6"/>
<path d="M145.178 208.697C144.044 209.304 142.719 209.448 141.481 209.1C140.244 208.751 139.189 207.937 138.538 206.828L134.198 199.429L138.954 194.605L146.015 200.487C146.641 201.009 147.129 201.677 147.437 202.431C147.745 203.186 147.863 204.004 147.78 204.815C147.697 205.626 147.417 206.404 146.963 207.081C146.509 207.758 145.896 208.313 145.178 208.697Z" fill="#FFB9B9"/>
<path d="M139.467 193.141L135.415 205.295C124.406 198.526 116.683 189.314 114 176.356L124.241 146.968C125.163 144.322 126.806 141.986 128.985 140.225C131.164 138.463 133.792 137.345 136.573 136.998L137.73 164.78L129.627 178.671L139.467 193.141Z" fill="#E6E6E6"/>
<path d="M164.532 117.009C165.026 115.829 164.828 114.623 164.091 114.314C163.354 114.006 162.356 114.712 161.862 115.892C161.369 117.071 161.566 118.277 162.304 118.586C163.041 118.894 164.039 118.188 164.532 117.009Z" fill="#FFB9B9"/>
<path d="M396.455 123.458C396.455 123.458 390.528 121.341 386.718 129.807C382.909 138.274 376.982 147.587 376.982 147.587L380.369 148.434C380.369 148.434 381.215 142.507 383.332 141.661L382.485 149.28C382.485 149.28 407.884 158.17 419.314 148.434L418.891 145.47C418.891 145.47 420.584 145.894 420.584 148.434L421.854 147.164C421.854 147.164 420.584 144.624 416.774 141.237C414.274 139.014 413.414 134.786 413.119 132.142C412.898 129.934 412.014 127.844 410.585 126.148C408.053 123.213 403.44 120.095 396.455 123.458Z" fill="black"/>
<path d="M361.649 196.087L367.19 203.14L370.717 199.109L367.694 194.071L361.649 196.087Z" fill="#FBBEBE"/>
<path d="M359.634 304.408L357.618 314.988L362.656 317.507L366.183 314.988V304.408H359.634Z" fill="#FBBEBE"/>
<path d="M394.9 304.408L396.916 314.988L391.877 317.507L388.35 314.988V304.408H394.9Z" fill="#FBBEBE"/>
<path d="M374.244 209.187L367.191 259.568L357.114 305.416L369.206 306.928L378.779 264.103L390.87 227.828L389.359 271.157L386.84 306.928H395.908L402.458 258.561L409.7 222.601L409.511 209.187H374.244Z" fill="#E6E6E6"/>
<path d="M361.145 313.981C361.145 313.981 358.626 310.958 357.114 312.47C355.603 313.981 352.076 320.027 352.076 320.027C352.076 320.027 344.015 324.561 350.565 325.569C357.114 326.576 359.13 325.569 359.13 325.065C359.13 324.561 360.137 323.05 360.137 323.05L362.656 323.554L366.183 322.546C366.183 322.546 367.694 313.263 366.183 313.622C364.672 313.981 361.649 315.493 361.145 313.981Z" fill="#E6E6E6"/>
<path d="M393.389 313.981C393.389 313.981 395.908 310.958 397.42 312.47C398.931 313.981 402.458 320.027 402.458 320.027C402.458 320.027 410.519 324.561 403.969 325.569C397.42 326.576 395.404 325.569 395.404 325.065C395.404 324.561 394.397 323.05 394.397 323.05L391.878 323.554L388.351 322.546C388.351 322.546 386.84 313.263 388.351 313.622C389.862 313.981 392.885 315.493 393.389 313.981Z" fill="#E6E6E6"/>
<path d="M398.175 149.484C403.74 149.484 408.252 144.973 408.252 139.408C408.252 133.843 403.74 129.331 398.175 129.331C392.61 129.331 388.099 133.843 388.099 139.408C388.099 144.973 392.61 149.484 398.175 149.484Z" fill="#FBBEBE"/>
<path d="M404.977 145.705C404.977 145.705 403.97 154.27 404.473 156.285C404.977 158.301 405.985 161.324 405.985 161.324L389.863 158.301C389.863 158.301 394.397 148.728 393.39 147.217C392.382 145.705 404.977 145.705 404.977 145.705Z" fill="#FBBEBE"/>
<path d="M406.489 157.797L389.863 154.27L380.29 212.712C384.605 211.534 389.178 211.71 393.389 213.216C400.443 215.735 410.015 213.216 410.015 213.216L408 158.301L406.489 157.797Z" fill="black"/>
<path d="M393.249 149.642L387.344 152.759L379.786 154.271L371.725 173.416L372.733 187.019C372.733 187.019 364.168 202.637 363.16 211.202C363.16 211.202 364.168 224.301 380.794 223.797L391.878 193.065C391.878 193.065 396.412 169.889 391.878 163.34C391.878 163.34 395.124 151.059 393.249 149.642Z" fill="#E6E6E6"/>
<path d="M382.809 154.27L381.177 153.992L379.786 154.27C379.786 154.27 376.259 154.774 372.229 158.301C368.198 161.827 354.595 172.911 353.587 175.934C352.58 178.957 353.084 183.995 354.595 187.018C356.106 190.041 359.129 194.072 359.129 194.072L360.641 197.598L369.206 195.079C369.206 195.079 363.664 184.499 364.168 179.965L374.244 171.904L382.809 154.27Z" fill="#E6E6E6"/>
<path d="M404.418 151.92L412.029 161.324L416.06 166.362L411.022 183.492L408.503 198.103C408.503 198.103 414.548 221.278 409.51 228.332C409.51 228.332 406.487 231.858 405.48 227.828C404.472 223.797 404.472 204.652 404.472 204.652C404.472 204.652 400.442 179.461 402.457 172.912C404.472 166.362 402.349 153.095 404.418 151.92Z" fill="#E6E6E6"/>
<path d="M411.526 224.805V229.843C411.526 229.843 410.518 246.469 415.557 244.454C420.595 242.438 417.068 229.843 417.068 229.843L416.564 224.301L411.526 224.805Z" fill="#FBBEBE"/>
<path d="M386.943 139.945C390.775 137.171 393.877 133.977 395.929 130.177C395.929 130.177 402.961 137.991 407.259 138.382C411.556 138.773 407.65 129.005 407.65 129.005L399.836 127.052L392.413 127.833L386.553 131.74L386.943 139.945Z" fill="black"/>
<path d="M412.03 164.85L416.06 166.361L416.564 171.399L418.579 202.132L417.571 225.308L410.014 225.812L407.495 200.117L406.488 171.904L412.03 164.85Z" fill="#E6E6E6"/>
</g>
<defs>
<clipPath id="clip0">
<rect width="438" height="339.109" fill="white"/>
</clipPath>
</defs>
</svg>
