<svg width="50" height="50" viewBox="0 0 50 50" fill="none" xmlns="http://www.w3.org/2000/svg">
<path fill-rule="evenodd" clip-rule="evenodd" d="M50 25C50 31.6304 47.3661 37.9893 42.6777 42.6777C37.9893 47.3661 31.6304 50 25 50C18.3696 50 12.0107 47.3661 7.32233 42.6777C2.63392 37.9893 0 31.6304 0 25C0 18.3696 2.63392 12.0107 7.32233 7.32233C12.0107 2.63392 18.3696 0 25 0C31.6304 0 37.9893 2.63392 42.6777 7.32233C47.3661 12.0107 50 18.3696 50 25ZM26.1063 33.2687C26.3996 33.5621 26.5645 33.9601 26.5645 34.375C26.5645 34.7899 26.3996 35.1879 26.1063 35.4813C25.8129 35.7746 25.4149 35.9395 25 35.9395C24.5851 35.9395 24.1871 35.7746 23.8937 35.4813L14.5187 26.1063C14.3732 25.9611 14.2578 25.7887 14.179 25.5989C14.1003 25.409 14.0597 25.2055 14.0597 25C14.0597 24.7945 14.1003 24.591 14.179 24.4011C14.2578 24.2113 14.3732 24.0389 14.5187 23.8937L23.8937 14.5187C24.039 14.3735 24.2115 14.2582 24.4013 14.1796C24.5911 14.101 24.7945 14.0605 25 14.0605C25.2055 14.0605 25.4089 14.101 25.5987 14.1796C25.7885 14.2582 25.961 14.3735 26.1063 14.5187C26.2515 14.664 26.3668 14.8365 26.4454 15.0263C26.524 15.2161 26.5645 15.4195 26.5645 15.625C26.5645 15.8305 26.524 16.0339 26.4454 16.2237C26.3668 16.4135 26.2515 16.586 26.1063 16.7313L19.3969 23.4375H34.375C34.7894 23.4375 35.1868 23.6021 35.4799 23.8951C35.7729 24.1882 35.9375 24.5856 35.9375 25C35.9375 25.4144 35.7729 25.8118 35.4799 26.1049C35.1868 26.3979 34.7894 26.5625 34.375 26.5625H19.3969L26.1063 33.2687Z" fill="#964B00"/>
</svg>
