<svg width="50" height="50" viewBox="0 0 50 50" fill="none" xmlns="http://www.w3.org/2000/svg">
<path fill-rule="evenodd" clip-rule="evenodd" d="M0 25C0 31.6304 2.63392 37.9893 7.32233 42.6777C12.0107 47.3661 18.3696 50 25 50C31.6304 50 37.9893 47.3661 42.6777 42.6777C47.3661 37.9893 50 31.6304 50 25C50 18.3696 47.3661 12.0107 42.6777 7.32233C37.9893 2.63392 31.6304 0 25 0C18.3696 0 12.0107 2.63392 7.32233 7.32233C2.63392 12.0107 0 18.3696 0 25ZM23.8937 33.2687C23.6004 33.5621 23.4355 33.9601 23.4355 34.375C23.4355 34.7899 23.6004 35.1879 23.8937 35.4813C24.1871 35.7746 24.5851 35.9395 25 35.9395C25.4149 35.9395 25.8129 35.7746 26.1063 35.4813L35.4813 26.1063C35.6268 25.9611 35.7422 25.7887 35.821 25.5989C35.8997 25.409 35.9403 25.2055 35.9403 25C35.9403 24.7945 35.8997 24.591 35.821 24.4011C35.7422 24.2113 35.6268 24.0389 35.4813 23.8937L26.1063 14.5187C25.961 14.3735 25.7885 14.2582 25.5987 14.1796C25.4089 14.101 25.2055 14.0605 25 14.0605C24.7945 14.0605 24.5911 14.101 24.4013 14.1796C24.2115 14.2582 24.039 14.3735 23.8937 14.5187C23.7485 14.664 23.6332 14.8365 23.5546 15.0263C23.476 15.2161 23.4355 15.4195 23.4355 15.625C23.4355 15.8305 23.476 16.0339 23.5546 16.2237C23.6332 16.4135 23.7485 16.586 23.8937 16.7313L30.6031 23.4375H15.625C15.2106 23.4375 14.8132 23.6021 14.5201 23.8951C14.2271 24.1882 14.0625 24.5856 14.0625 25C14.0625 25.4144 14.2271 25.8118 14.5201 26.1049C14.8132 26.3979 15.2106 26.5625 15.625 26.5625H30.6031L23.8937 33.2687Z" fill="#964B00"/>
</svg>
